<?xml version="1.0" standalone="no"?>
<!DOCTYPE svg PUBLIC "-//W3C//DTD SVG 1.1//EN" "http://www.w3.org/Graphics/SVG/1.1/DTD/svg11.dtd" >
<svg xmlns="http://www.w3.org/2000/svg">
<metadata></metadata>
<defs>
<font id="averta_stdregular" horiz-adv-x="1245" >
<font-face units-per-em="2048" ascent="1581" descent="-467" />
<missing-glyph horiz-adv-x="563" />
<glyph horiz-adv-x="0" />
<glyph unicode="&#xd;" horiz-adv-x="681" />
<glyph unicode=" "  horiz-adv-x="563" />
<glyph unicode="&#x09;" horiz-adv-x="563" />
<glyph unicode="&#xa0;" horiz-adv-x="563" />
<glyph unicode="!" horiz-adv-x="503" d="M133 102q0 49 34 83t85 34q47 0 82 -33.5t35 -83.5q0 -47 -35 -80.5t-82 -33.5q-51 0 -85 33.5t-34 80.5zM160 1507h190l-31 -1079h-129z" />
<glyph unicode="&#x22;" horiz-adv-x="698" d="M80 961l67 493h181l-111 -493h-137zM371 961l65 493h182l-108 -493h-139z" />
<glyph unicode="#" horiz-adv-x="1296" d="M86 346v129h260l51 330h-268v127h289l61 411h127l-61 -411h317l64 411h127l-64 -411h250v-127h-270l-49 -330h274v-129h-295l-63 -418h-125l63 418h-319l-66 -418h-127l66 418h-242zM473 475h320l51 330h-320z" />
<glyph unicode="$" horiz-adv-x="1159" d="M115 199l106 127q174 -170 395 -170q117 0 190 55t73 149q0 102 -71 152.5t-237 101.5q-84 27 -132 45.5t-112.5 52t-98 69.5t-59.5 93.5t-26 126.5q0 154 103.5 254.5t285.5 108.5v258h138v-268q201 -33 350 -150l-105 -127q-166 121 -344 121q-111 0 -177 -49t-66 -137 q0 -45 19.5 -80t66.5 -62.5t89 -45t120 -44.5q94 -31 145 -49t117.5 -53t99.5 -73t57.5 -97t24.5 -137q0 -158 -105.5 -259.5t-291.5 -115.5v-250h-138v252q-236 25 -417 201z" />
<glyph unicode="%" horiz-adv-x="2045" d="M92 1067q0 168 113.5 283.5t294.5 115.5q172 0 290.5 -110.5t118.5 -288.5q0 -170 -114.5 -287.5t-294.5 -117.5q-172 0 -290 112.5t-118 292.5zM238 1065q0 -121 75.5 -196.5t188.5 -75.5q117 0 190.5 78.5t73.5 193.5q0 119 -77 193.5t-187 74.5q-117 0 -190.5 -76.5 t-73.5 -191.5zM639 23l637 1456l135 -60l-637 -1454zM1130 391q0 168 115 285t293 117q172 0 291 -113t119 -289q0 -170 -114 -286.5t-296 -116.5q-172 0 -290 112.5t-118 290.5zM1276 389q0 -119 75.5 -194.5t186.5 -75.5q119 0 192.5 77.5t73.5 192.5q0 121 -76.5 195.5 t-189.5 74.5q-117 0 -189.5 -77.5t-72.5 -192.5z" />
<glyph unicode="&#x26;" horiz-adv-x="1345" d="M104 416q0 135 76 248.5t201 181.5l-176 211q16 182 135 296.5t297 114.5q160 0 267.5 -79.5t156.5 -194.5l-143 -55q-80 176 -269 178q-121 0 -188.5 -65.5t-79.5 -168.5l592 -706q78 135 78 297l161 4q0 -250 -129 -434l205 -244h-201l-116 139q-156 -152 -404 -151 q-197 0 -330 118.5t-133 309.5zM279 424q0 -121 85 -199t220 -78q174 0 290 107v2l-391 469q-96 -45 -150 -127t-54 -174z" />
<glyph unicode="'" horiz-adv-x="407" d="M80 961l67 493h181l-111 -493h-137z" />
<glyph unicode="(" horiz-adv-x="581" d="M125 606q0 528 237 912l127 -62q-209 -379 -208 -850q0 -440 202 -852l-129 -57q-229 408 -229 909z" />
<glyph unicode=")" horiz-adv-x="581" d="M92 1456l127 62q238 -383 238 -912q-1 -501 -230 -909l-129 57q203 412 203 852q0 471 -209 850z" />
<glyph unicode="*" horiz-adv-x="837" d="M109 1243l59 96l203 -127l-6 242h110l-8 -242l205 127l55 -96l-215 -115l215 -110l-55 -98l-203 127l6 -242h-110l6 242l-203 -127l-57 98l213 110z" />
<glyph unicode="+" horiz-adv-x="1191" d="M117 489v154h401v404h156v-404h401v-154h-401v-401h-156v401h-401z" />
<glyph unicode="," horiz-adv-x="440" d="M66 -266l65 491h182l-125 -491h-122z" />
<glyph unicode="-" horiz-adv-x="839" d="M117 551v162h606v-162h-606z" />
<glyph unicode="." horiz-adv-x="493" d="M129 102q0 49 34 83t85 34q47 0 82 -33.5t35 -83.5q0 -47 -35 -80.5t-82 -33.5q-51 0 -85 33.5t-34 80.5z" />
<glyph unicode="/" horiz-adv-x="847" d="M-57 -170l788 1747l133 -64l-786 -1744z" />
<glyph unicode="0" horiz-adv-x="1286" d="M115 702q0 319 141 518t387 199q236 0 382 -189.5t146 -527.5q0 -319 -140 -516.5t-388 -197.5q-236 0 -382 189.5t-146 524.5zM289 702q0 -262 97 -408.5t257 -146.5q168 0 261 149.5t93 405.5q0 264 -97 411t-257 147q-166 0 -260 -151t-94 -407z" />
<glyph unicode="1" horiz-adv-x="768" d="M43 1116l395 291h144v-1407h-172v1198l-281 -211z" />
<glyph unicode="2" horiz-adv-x="1067" d="M80 119l481 491q106 111 160.5 197t54.5 180q0 117 -73.5 193.5t-190.5 76.5q-203 0 -303 -192l-127 88q135 266 440 266q176 0 301 -112.5t125 -300.5q0 -121 -55 -231.5t-184 -242.5l-367 -370v-4h625v-158h-885z" />
<glyph unicode="3" horiz-adv-x="1101" d="M57 266l150 70q84 -186 321 -186q123 0 207 70.5t84 182.5q0 106 -80 178t-229 72h-117v152h137q127 0 190.5 63.5t63.5 159.5q0 102 -75.5 165.5t-188.5 63.5q-182 0 -274 -137l-140 76q57 102 165 162.5t253 60.5q186 0 309 -99t123 -269q0 -104 -53 -189.5 t-149 -130.5v-2q113 -43 176 -135t63 -217q0 -172 -129 -280.5t-325 -108.5q-174 0 -300 75.5t-182 202.5z" />
<glyph unicode="4" horiz-adv-x="1163" d="M63 248v123l680 1036h146v-1004h205v-155h-205v-248h-172v248h-654zM270 399h451v695z" />
<glyph unicode="5" horiz-adv-x="1140" d="M82 221l129 98q49 -80 134 -126t192 -46q137 0 232 85t95 214q0 137 -95 216t-230 79q-160 0 -248 -77l-101 30l41 713h744v-160h-582l-22 -395q117 41 213 41q195 0 324.5 -122t129.5 -327q0 -201 -141 -329.5t-348 -128.5q-145 0 -269 62.5t-198 172.5z" />
<glyph unicode="6" horiz-adv-x="1196" d="M113 530q0 365 209.5 618t504.5 306l52 -147q-207 -51 -359.5 -188.5t-210.5 -356.5h2q137 125 344 125q193 0 316 -120t123 -327q0 -195 -138.5 -323.5t-347.5 -128.5q-213 0 -354 151.5t-141 390.5zM281 520q0 -166 91 -268t234 -102q139 0 227.5 84.5t88.5 207.5 q0 129 -83 207t-223 78q-111 0 -197.5 -55.5t-137.5 -136.5v-15z" />
<glyph unicode="7" horiz-adv-x="1011" d="M55 1247v160h871v-121l-557 -1311l-172 35l538 1237h-680z" />
<glyph unicode="8" horiz-adv-x="1177" d="M94 387q0 139 74 237.5t192 137.5v2q-78 25 -137 106.5t-59 190.5q0 166 118.5 262t305.5 96q190 0 308 -98t118 -260q0 -106 -60.5 -189.5t-138.5 -107.5v-2q121 -39 194.5 -137.5t73.5 -237.5q0 -178 -141 -288.5t-354 -110.5q-215 0 -354.5 113.5t-139.5 285.5z M268 406q0 -113 92.5 -188t227.5 -75q141 0 229 77t88 186q0 121 -88 195.5t-229 74.5q-143 0 -231.5 -75t-88.5 -195zM330 1049q0 -96 71.5 -154.5t186.5 -58.5q117 0 189.5 58t72.5 155q0 94 -74.5 155.5t-187.5 61.5q-115 0 -186.5 -63.5t-71.5 -153.5z" />
<glyph unicode="9" horiz-adv-x="1185" d="M96 958q0 197 139.5 329t348.5 132q211 0 352 -153.5t141 -399.5q0 -184 -63.5 -348t-168 -277.5t-234.5 -188.5t-269 -101l-49 147q209 53 367.5 187.5t218.5 353.5l-5 2q-141 -125 -350 -125q-186 0 -307 121t-121 321zM270 958q0 -127 80 -204.5t211 -77.5 q106 0 199.5 53t148.5 141v11q0 170 -91 274.5t-232 104.5q-139 0 -227.5 -88.5t-88.5 -213.5z" />
<glyph unicode=":" horiz-adv-x="487" d="M121 102q0 49 33.5 83t85.5 34q47 0 81.5 -33.5t34.5 -83.5q0 -47 -34.5 -80.5t-81.5 -33.5q-51 0 -85 33.5t-34 80.5zM121 891q0 49 33.5 83t85.5 34q47 0 81.5 -34t34.5 -83q0 -47 -34.5 -81t-81.5 -34q-51 0 -85 34t-34 81z" />
<glyph unicode=";" horiz-adv-x="464" d="M68 -266l65 491h182l-125 -491h-122zM109 889q0 49 33.5 83t84.5 34q47 0 82 -34t35 -83q0 -47 -35 -81t-82 -34q-51 0 -84.5 34t-33.5 81z" />
<glyph unicode="&#x3c;" horiz-adv-x="1175" d="M115 506v123l921 424v-170l-692 -314l692 -315v-168z" />
<glyph unicode="=" horiz-adv-x="1193" d="M131 258v154h959v-154h-959zM131 721v153h959v-153h-959z" />
<glyph unicode="&#x3e;" horiz-adv-x="1175" d="M139 86v168l692 315l-692 314v170l922 -424v-123z" />
<glyph unicode="?" horiz-adv-x="923" d="M45 1331q68 90 170 140.5t221 50.5q170 0 287 -104.5t117 -278.5q0 -111 -48.5 -196t-134.5 -173q-12 -12 -50 -49t-52 -52.5t-37.5 -44t-32 -51t-10.5 -47.5l-4 -100h-147v109q0 59 33.5 121.5t57 88t93.5 99.5q72 74 109.5 140.5t37.5 145.5q0 104 -65.5 164t-165.5 60 q-72 0 -141.5 -37t-112.5 -103zM285 102q0 49 33.5 83t84.5 34q47 0 82 -33.5t35 -83.5q0 -47 -35 -80.5t-82 -33.5q-51 0 -84.5 33.5t-33.5 80.5z" />
<glyph unicode="@" horiz-adv-x="1847" d="M100 481q0 109 29 221.5t96.5 229.5t167 207t255 147t343.5 57q340 0 548 -205.5t208 -533.5q0 -78 -20.5 -162t-65.5 -166.5t-132 -136t-202 -53.5q-92 0 -146.5 53.5t-52.5 143.5h-4q-94 -174 -305 -174q-154 0 -252 107.5t-98 283.5q0 74 24.5 152.5t71.5 150t129 117 t185 45.5q193 0 276 -177h2l19 164h167l-53 -553q-4 -45 -4 -57q0 -72 22.5 -96.5t65.5 -24.5q111 0 175.5 128t64.5 255q0 268 -173 442.5t-450 174.5q-158 0 -288 -47.5t-216 -122t-144 -173t-84 -198.5t-26 -201q0 -270 180.5 -455.5t434.5 -185.5q229 0 432 109l61 -97 q-215 -137 -493 -137q-319 0 -533.5 217t-214.5 551zM641 514q0 -111 63.5 -182.5t163.5 -71.5q129 0 205 95.5t76 209.5q0 106 -62.5 176t-160.5 70q-131 0 -208 -88t-77 -209z" />
<glyph unicode="A" horiz-adv-x="1396" d="M57 0l551 1454h178l555 -1454h-188l-129 354h-649l-129 -354h-189zM432 510h535l-267 727h-4z" />
<glyph unicode="B" horiz-adv-x="1308" d="M184 0v1454h475q221 0 345 -87t124 -267q0 -111 -58 -202t-171 -130v-4q133 -29 217 -123t84 -248q0 -178 -123 -285.5t-362 -107.5h-531zM362 164h304q160 0 254 62.5t94 183.5q0 123 -88 191.5t-252 68.5h-312v-506zM362 829h295q119 0 204 57.5t85 178.5 q0 225 -323 225h-261v-461z" />
<glyph unicode="C" horiz-adv-x="1490" d="M121 721q0 324 193.5 535.5t531.5 211.5q344 0 567 -278l-133 -111q-174 219 -434 219q-246 0 -392.5 -160.5t-146.5 -416.5t151.5 -408.5t387.5 -152.5q260 0 434 217l133 -113q-221 -274 -567 -274q-309 0 -517 194.5t-208 536.5z" />
<glyph unicode="D" horiz-adv-x="1495" d="M184 0v1454h437q342 0 547.5 -201.5t205.5 -527.5t-201.5 -525.5t-545.5 -199.5h-443zM362 162h252q260 0 419 157.5t159 405.5q0 252 -157.5 409.5t-411.5 157.5h-261v-1130z" />
<glyph unicode="E" horiz-adv-x="1224" d="M184 0v1454h891v-164h-710v-485h583v-164h-583v-477h753v-164h-934z" />
<glyph unicode="F" horiz-adv-x="1193" d="M184 0v1454h928v-164h-750v-510h637v-164h-637v-616h-178z" />
<glyph unicode="G" horiz-adv-x="1562" d="M121 725q0 326 197.5 534.5t523.5 208.5q334 0 555 -229l-127 -109q-178 168 -430 168q-231 0 -382 -157.5t-151 -415.5q0 -248 149.5 -408.5t391.5 -160.5q233 0 387 110v320h-422v164h600v-576q-217 -184 -565 -184q-317 0 -522 200.5t-205 534.5z" />
<glyph unicode="H" horiz-adv-x="1486" d="M184 0v1454h178v-682h762v682h179v-1454h-179v608h-762v-608h-178z" />
<glyph unicode="I" horiz-adv-x="569" d="M195 0v1454h180v-1454h-180z" />
<glyph unicode="J" horiz-adv-x="1017" d="M66 174l100 131q127 -145 274 -145q240 0 240 317v977h176v-981q0 -483 -410 -483q-102 0 -205.5 48t-174.5 136z" />
<glyph unicode="K" horiz-adv-x="1331" d="M184 0v1454h178v-799h5l661 799h227l-563 -661l580 -793h-223l-474 647h-6l-207 -246v-401h-178z" />
<glyph unicode="L" horiz-adv-x="1150" d="M184 0v1454h178v-1290h721v-164h-899z" />
<glyph unicode="M" horiz-adv-x="1800" d="M184 0v1454h181l534 -940h4l535 940h178v-1454h-178v1114h-4l-473 -821h-121l-473 821h-5v-1114h-178z" />
<glyph unicode="N" horiz-adv-x="1548" d="M184 0v1454h176l822 -1159h4v1159h178v-1454h-182l-815 1147h-5v-1147h-178z" />
<glyph unicode="O" horiz-adv-x="1697" d="M121 727.5q0 319.5 203.5 530t527.5 210.5q311 0 518 -205.5t207 -535.5q0 -328 -207 -533.5t-518 -205.5q-324 0 -527.5 210t-203.5 529.5zM305 727q0 -242 153.5 -405.5t393.5 -163.5q229 0 384 160.5t155 408.5q0 250 -155 410.5t-384 160.5q-240 0 -393.5 -164.5 t-153.5 -406.5z" />
<glyph unicode="P" horiz-adv-x="1265" d="M184 0v1454h510q244 0 363 -123t119 -327q0 -223 -138.5 -336t-373.5 -113h-302v-555h-178zM362 719h285q174 0 258 77.5t84 211.5q0 137 -83 209.5t-230 72.5h-314v-571z" />
<glyph unicode="Q" horiz-adv-x="1732" d="M121 727.5q0 319.5 203.5 530t527.5 210.5q311 0 518 -205.5t207 -535.5q0 -268 -147 -465l182 -164l-103 -129l-192 176q-196 -157 -462 -157h-3q-324 0 -527.5 210t-203.5 529.5zM305 727q0 -244 155.5 -406.5t391.5 -162.5q188 0 328 110l-166 152l100 123l176 -158 q100 150 101 342q0 246 -153 408.5t-386 162.5q-236 0 -391.5 -162.5t-155.5 -408.5z" />
<glyph unicode="R" horiz-adv-x="1325" d="M184 0v1454h516q242 0 362 -123t120 -327q0 -180 -91.5 -289t-254.5 -144v-2l385 -569h-215l-369 555h-275v-555h-178zM362 719h291q174 0 259 79t85 210q0 137 -84 209.5t-235 72.5h-316v-571z" />
<glyph unicode="S" horiz-adv-x="1196" d="M90 213l115 135q76 -94 184.5 -143t218.5 -49q135 0 216 59t81 164q0 57 -19.5 98t-66.5 73t-91 51.5t-126 49.5q-14 6 -22 8q-80 29 -130.5 50.5t-115 60.5t-100 79t-62.5 100.5t-27 133.5q0 162 129 272.5t316 112.5q246 0 461 -170l-109 -139q-170 143 -352 144 q-106 0 -182 -56.5t-76 -154.5q0 -41 16.5 -75t37 -55.5t71.5 -48t80.5 -40t103.5 -42.5q225 -86 297 -135q154 -104 154 -299q0 -193 -142.5 -301t-343.5 -108q-305 0 -516 225z" />
<glyph unicode="T" horiz-adv-x="1181" d="M63 1290v164h1053v-164h-438v-1290h-178v1290h-437z" />
<glyph unicode="U" horiz-adv-x="1456" d="M164 592v862h178v-850q0 -203 104.5 -324.5t278.5 -121.5t280.5 119.5t106.5 326.5v850h178v-862q0 -281 -152.5 -442.5t-412.5 -161.5q-254 0 -407.5 160.5t-153.5 443.5z" />
<glyph unicode="V" horiz-adv-x="1380" d="M66 1454h192l434 -1198h4l434 1198h193l-549 -1454h-160z" />
<glyph unicode="W" horiz-adv-x="2097" d="M72 1454h190l359 -1161h4l327 1161h195l328 -1165h2l358 1165h190l-464 -1454h-172l-336 1192h-2l-342 -1192h-172z" />
<glyph unicode="X" horiz-adv-x="1366" d="M72 0l497 727l-491 727h205l399 -588h4l397 588h207l-489 -729l495 -725h-211l-399 586h-4l-399 -586h-211z" />
<glyph unicode="Y" horiz-adv-x="1236" d="M35 1454h205l376 -627h5l374 627h207l-495 -805v-649h-179v649z" />
<glyph unicode="Z" horiz-adv-x="1265" d="M121 0v141l776 1147v2h-735v164h968v-141l-782 -1149h789v-164h-1016z" />
<glyph unicode="[" horiz-adv-x="636" d="M139 -297v1790h400v-131h-252v-1528h252v-131h-400z" />
<glyph unicode="\" horiz-adv-x="860" d="M-16 1513l133 64l788 -1747l-135 -61z" />
<glyph unicode="]" horiz-adv-x="636" d="M98 -166h252v1528h-252v131h400v-1790h-400v131z" />
<glyph unicode="^" horiz-adv-x="958" d="M125 1024l287 430h133l289 -430h-152l-205 313l-205 -313h-147z" />
<glyph unicode="_" horiz-adv-x="1079" d="M-4 -55h1087v-119h-1087v119z" />
<glyph unicode="`" horiz-adv-x="1034" d="M268 1399l191 -2l239 -289h-176z" />
<glyph unicode="a" d="M98 492q0 221 138.5 369.5t349.5 148.5q213 0 344 -162h2v149h166v-997h-160v158h-2q-127 -170 -348 -170q-211 0 -350.5 139t-139.5 365zM266 492q0 -154 93 -253.5t243 -99.5q139 0 237.5 99.5t98.5 253t-95 259t-238.5 105.5t-241 -101.5t-97.5 -262.5z" />
<glyph unicode="b" horiz-adv-x="1255" d="M160 0v1507h166v-659h2q131 162 344 162q209 0 348 -148.5t139 -369.5q0 -225 -140 -364.5t-349 -139.5q-221 0 -348 170h-5v-158h-157zM319 491.5q0 -153.5 98.5 -253t235.5 -99.5q150 0 243 99.5t93 253.5q0 164 -96 264t-242 100q-141 0 -236.5 -105.5t-95.5 -259z " />
<glyph unicode="c" horiz-adv-x="1069" d="M96 497.5q0 225.5 140.5 369t359.5 143.5q115 0 222.5 -46t178.5 -133l-114 -100q-100 125 -279 125q-150 0 -245 -100.5t-95 -257.5q0 -160 94.5 -259.5t245.5 -99.5q174 0 283 119l114 -102q-66 -74 -174 -121t-237 -47q-217 0 -355.5 142t-138.5 367.5z" />
<glyph unicode="d" horiz-adv-x="1251" d="M96 492q0 221 138.5 369.5t349.5 148.5q213 0 340 -162h2v659h166v-1507h-158v158h-4q-127 -170 -344 -170q-211 0 -350.5 139t-139.5 365zM264 492q0 -154 93 -253.5t243 -99.5q135 0 233.5 99.5t98.5 253t-94.5 259t-235.5 105.5q-143 0 -240.5 -101.5t-97.5 -262.5z " />
<glyph unicode="e" horiz-adv-x="1130" d="M96 498q0 223 136.5 367.5t340.5 144.5q207 0 335 -139.5t128 -356.5q0 -16 -2 -43l-2 -25h-768q16 -139 107.5 -223t226.5 -84q174 0 281 135l116 -100q-145 -186 -403 -186q-215 0 -355.5 142t-140.5 368zM270 584h602q-20 125 -96 198.5t-194.5 73.5t-203.5 -72.5 t-108 -199.5z" />
<glyph unicode="f" horiz-adv-x="686" d="M78 854v143h123v201q0 160 72.5 242t205.5 82q127 0 234 -64l-37 -143q-98 51 -174 51q-137 0 -137 -182v-187h282v-143h-282v-854h-164v854h-123z" />
<glyph unicode="g" horiz-adv-x="1226" d="M92 512q0 213 136.5 355.5t338.5 142.5q211 0 344 -152h4v139h164v-921q0 -229 -119.5 -361.5t-369.5 -132.5q-225 0 -406 109l39 153q186 -104 359 -104q162 0 249 83t87 210v139h-5q-125 -154 -338 -154q-205 0 -344 137.5t-139 356.5zM262 518q0 -156 94.5 -250 t231.5 -94q150 0 242 97.5t92 248.5q0 147 -95.5 240.5t-238.5 93.5q-141 0 -233.5 -95t-92.5 -241z" />
<glyph unicode="h" horiz-adv-x="1196" d="M158 0v1507h166v-673h4q124 176 366 176q170 0 266.5 -102.5t96.5 -309.5v-598h-166v551q0 305 -244 305q-150 0 -236.5 -94t-86.5 -260v-502h-166z" />
<glyph unicode="i" horiz-adv-x="512" d="M137 1298.5q0 49.5 34 83t85 33.5q49 0 84 -34.5t35 -82.5q0 -49 -35 -82.5t-84 -33.5q-51 0 -85 33.5t-34 83zM172 0v997h166v-997h-166z" />
<glyph unicode="j" horiz-adv-x="466" d="M-104 -385l26 147q51 -28 102 -28h3q129 0 129 162v1101h166v-1101q0 -145 -67.5 -229.5t-186.5 -84.5q-94 0 -172 33zM121 1298.5q0 49.5 33.5 83t85.5 33.5q49 0 83.5 -34.5t34.5 -82.5q0 -49 -34.5 -82.5t-83.5 -33.5q-51 0 -85 33.5t-34 83z" />
<glyph unicode="k" horiz-adv-x="1067" d="M160 0v1507h164v-1054h4l489 544h203l-373 -413l375 -584h-191l-294 457h-5l-208 -232v-225h-164z" />
<glyph unicode="l" horiz-adv-x="512" d="M172 0v1507h166v-1507h-166z" />
<glyph unicode="m" horiz-adv-x="1830" d="M160 0v997h164v-172h2q61 88 149 136.5t187 48.5q240 0 317 -197h2q122 197 362 197q350 0 351 -426v-584h-166v539q0 166 -56.5 241.5t-177.5 75.5q-119 0 -198.5 -98.5t-79.5 -261.5v-496h-166v541q0 315 -238 315q-125 0 -206.5 -98.5t-81.5 -261.5v-496h-164z" />
<glyph unicode="n" horiz-adv-x="1187" d="M158 0v997h166v-174h2q131 187 362 187q166 0 262.5 -105.5t96.5 -312.5v-592h-166v545q0 311 -244 311q-143 0 -228 -95t-85 -263v-498h-166z" />
<glyph unicode="o" horiz-adv-x="1222" d="M96 498q0 219 143.5 365.5t372.5 146.5q221 0 366.5 -143.5t145.5 -369t-145.5 -367.5t-366.5 -142q-229 0 -372.5 145.5t-143.5 364.5zM264 497.5q0 -151.5 97 -255t251 -103.5q145 0 244.5 101.5t99.5 257.5q0 158 -98 258t-246 100q-154 0 -251 -103.5t-97 -255z" />
<glyph unicode="p" horiz-adv-x="1251" d="M160 -406v1403h166v-147h2q129 160 340 160t349 -148.5t138 -369.5q0 -225 -139 -364.5t-348 -139.5q-213 0 -340 159h-4v-553h-164zM319 491.5q0 -153.5 98.5 -253t233.5 -99.5q150 0 243 99.5t93 253.5q0 164 -96 264t-242 100q-141 0 -235.5 -105.5t-94.5 -259z" />
<glyph unicode="q" d="M96 492q0 221 138.5 369.5t349.5 148.5q215 0 340 -160h4v147h166v-1403h-166v553h-4q-127 -160 -337 -160l-1 1q-211 0 -350.5 139t-139.5 365zM264 492q0 -154 93 -253.5t243 -99.5q137 0 235.5 99.5t98.5 253t-95.5 259t-236.5 105.5q-143 0 -240.5 -101.5 t-97.5 -262.5z" />
<glyph unicode="r" horiz-adv-x="731" d="M158 0v997h166v-176h2q116 189 325 189q31 0 41 -2v-185q-45 4 -65 4q-139 0 -221 -96t-82 -250v-481h-166z" />
<glyph unicode="s" horiz-adv-x="903" d="M72 131l86 125q129 -119 305 -119q86 0 137 39t51 94q0 57 -50 87t-175 73q-8 2 -12 4q-145 51 -222 116.5t-77 190.5q0 115 93 192t236 77q190 0 342 -123l-86 -131q-119 102 -264 102q-59 0 -106 -32.5t-47 -84.5q0 -53 46 -85.5t142 -69.5l60 -22.5t58.5 -22.5 t49.5 -21.5t47 -23t38 -23.5t35 -28.5t24.5 -33t21.5 -40t10 -45t4 -54.5q0 -123 -92 -203.5t-264 -80.5q-231 0 -391 143z" />
<glyph unicode="t" horiz-adv-x="745" d="M53 854v143h127v340l166 19v-359h332v-143h-332v-532q0 -92 27.5 -135.5t95.5 -43.5q78 0 168 52l45 -146q-111 -61 -242 -61q-260 0 -260 309v557h-127z" />
<glyph unicode="u" horiz-adv-x="1155" d="M137 403v594h166v-546q0 -166 60.5 -239t183.5 -73t209 101.5t86 273.5v483h166v-997h-166v166h-2q-125 -178 -328 -178q-178 0 -276.5 103.5t-98.5 311.5z" />
<glyph unicode="v" horiz-adv-x="1071" d="M49 997h178l308 -786h6l301 786h180l-406 -997h-159z" />
<glyph unicode="w" horiz-adv-x="1572" d="M59 997h168l254 -745h4l228 745h143l231 -745h5l254 745h167l-346 -997h-155l-226 727h-2l-227 -727h-151z" />
<glyph unicode="x" horiz-adv-x="1044" d="M63 0l363 504l-363 493h195l262 -364h4l260 364h195l-361 -493l365 -504h-188l-271 362h-4l-268 -362h-189z" />
<glyph unicode="y" horiz-adv-x="1081" d="M47 997h178l324 -759h4l301 759h176l-563 -1403h-176l178 447z" />
<glyph unicode="z" horiz-adv-x="972" d="M80 0v123l577 727v4h-546v143h776v-118l-584 -732v-4h582v-143h-805z" />
<glyph unicode="{" horiz-adv-x="692" d="M98 524v133q57 4 92 17.5t49.5 39t17.5 45t3 54.5v453q0 96 59.5 161.5t161.5 65.5h109v-119h-53q-61 0 -96 -40t-35 -97v-440q0 -90 -26 -137.5t-93 -65.5v-4q70 -18 94.5 -60.5t24.5 -144.5v-401q0 -84 29.5 -122t101.5 -38h53v-119h-109q-94 0 -157.5 62.5 t-63.5 164.5v437q0 39 -3 58t-17.5 45t-49 38t-92.5 14z" />
<glyph unicode="|" horiz-adv-x="602" d="M227 -236v1745h148v-1745h-148z" />
<glyph unicode="}" horiz-adv-x="692" d="M102 -176h54q72 0 101.5 38t29.5 122v401q0 102 24.5 144t94.5 61v4q-68 18 -93.5 65.5t-25.5 137.5v440q0 57 -35 97t-96 40h-54v119h109q102 0 161.5 -65.5t59.5 -161.5v-453q0 -35 3 -54.5t17.5 -45t49.5 -38.5t92 -18v-133q-57 -2 -92 -14t-49.5 -38t-17.5 -45 t-3 -58v-437q0 -102 -63.5 -164.5t-157.5 -62.5h-109v119z" />
<glyph unicode="~" horiz-adv-x="1150" d="M125 485q80 217 258 217q90 0 209 -57q102 -53 166 -53q98 0 147 106l121 -43q-35 -102 -101.5 -162.5t-148.5 -60.5t-221 68q-98 45 -154 45q-100 0 -155 -109z" />
<glyph unicode="&#xa1;" horiz-adv-x="503" d="M133 893q0 47 34 81t85 34q47 0 82 -34t35 -81q0 -49 -35 -83t-82 -34q-51 0 -85 34t-34 83zM160 -512l30 1079h129l31 -1079h-190z" />
<glyph unicode="&#xa2;" horiz-adv-x="1116" d="M104 608q0 209 125 348.5t330 159.5v217h133v-217q213 -25 340 -172l-112 -100q-111 125 -291 125q-158 0 -256.5 -100.5t-98.5 -258t98.5 -258t256.5 -100.5q182 0 295 119l112 -105q-127 -137 -344 -164v-211h-133v209q-203 18 -329 157.5t-126 350.5z" />
<glyph unicode="&#xa3;" horiz-adv-x="1153" d="M96 0v164h160v528h-127v137h127v117q0 238 115.5 353.5t292.5 115.5q246 0 380 -201l-94 -120q-100 154 -266 153q-250 0 -250 -319v-99h344v-137h-342v-528h662v-164h-1002z" />
<glyph unicode="&#xa4;" horiz-adv-x="1034" d="M49 412l162 159q-72 94 -72 220q0 123 72 221l-162 159l82 80l160 -159q98 76 221 75q127 0 223 -73l160 159l80 -79l-160 -160q74 -96 74 -223q0 -125 -74 -222l160 -161l-80 -80l-160 161q-98 -72 -223 -71q-123 0 -221 71l-160 -159zM260 793q2 -102 77 -177t177 -75 t177 74.5t77 177.5q-2 104 -77 177.5t-179 73.5q-102 0 -176 -73.5t-76 -177.5z" />
<glyph unicode="&#xa5;" horiz-adv-x="1148" d="M27 1405h206l340 -629h5l340 629l206 -2l-323 -567h203v-111h-267l-71 -125v-4h335v-113h-335v-483h-181v483h-348v113h348v4l-71 125h-277v111h213z" />
<glyph unicode="&#xa6;" horiz-adv-x="602" d="M227 -233v722h148v-722h-148zM227 791v718h148v-718h-148z" />
<glyph unicode="&#xa7;" horiz-adv-x="1105" d="M117 590q0 188 176 268q-127 90 -127 238q0 141 101.5 232t271.5 91q100 0 207.5 -40t187.5 -105l-100 -121q-141 106 -287 107q-86 0 -143.5 -43t-57.5 -117t56.5 -114t183.5 -89q217 -86 272 -121q129 -84 129 -235q0 -172 -168 -260q135 -86 135 -244 q0 -150 -108.5 -242t-290.5 -92q-260 0 -434 186l102 123q131 -152 330 -151q92 0 155.5 46t63.5 126q0 78 -56.5 116.5t-195.5 90.5q-84 33 -127 50t-106.5 51t-93 65.5t-53 78.5t-23.5 105zM287 618q0 -76 64.5 -122.5t217.5 -102.5l103 -39q68 16 106.5 60.5t38.5 105.5 q0 80 -58.5 120t-219.5 101l-95 37q-72 -12 -114.5 -55.5t-42.5 -104.5z" />
<glyph unicode="&#xa8;" horiz-adv-x="1040" d="M217 1266q0 49 35 82.5t84 33.5t84 -34.5t35 -81.5q0 -49 -35 -83t-84 -34q-51 0 -85 34t-34 83zM590 1266q0 47 33.5 80.5t83 33.5t83 -33.5t33.5 -80.5t-33.5 -81t-83 -34t-83 34t-33.5 81z" />
<glyph unicode="&#xa9;" horiz-adv-x="1431" d="M96 651q0 256 181.5 440.5t441.5 184.5q258 0 437 -184.5t179 -440.5q0 -254 -180 -439t-440 -185q-258 0 -438.5 184t-180.5 440zM215 649q0 -209 144.5 -356.5t355.5 -147.5t356.5 148.5t145.5 357.5q0 211 -144.5 358.5t-353.5 147.5q-213 0 -358.5 -149.5 t-145.5 -358.5zM399 647q0 145 88 240.5t246 95.5q160 0 260 -127l-80 -68q-74 90 -180 91q-100 0 -160.5 -63.5t-60.5 -168t61.5 -166t159.5 -61.5q115 0 180 86l80 -68q-96 -125 -260 -125q-143 0 -238.5 88t-95.5 246z" />
<glyph unicode="&#xaa;" horiz-adv-x="798" d="M59 1104q0 135 81 223t210 88q139 0 225 -108h3v100h120v-598h-120v88h-3q-80 -98 -219 -98q-131 0 -214 85t-83 220zM184 1104q0 -82 55.5 -135.5t143.5 -53.5q82 0 136 52.5t54 136.5t-53 139t-135 55q-86 0 -143.5 -54t-57.5 -140z" />
<glyph unicode="&#xab;" horiz-adv-x="948" d="M86 502l256 454h166l-256 -454l254 -449h-166zM446 502l259 454h163l-256 -454l254 -449h-166z" />
<glyph unicode="&#xac;" horiz-adv-x="1150" d="M119 659v152h911v-475h-149v323h-762z" />
<glyph unicode="&#xad;" horiz-adv-x="839" d="M117 551v162h606v-162h-606z" />
<glyph unicode="&#xae;" horiz-adv-x="1437" d="M96 651q0 258 182.5 443.5t442.5 185.5t440 -185.5t180 -443.5q0 -256 -182 -441t-440 -185q-260 0 -441.5 184t-181.5 442zM215 649q0 -209 146.5 -358.5t357.5 -149.5t356.5 150.5t145.5 359.5q0 211 -144.5 359.5t-355.5 148.5q-213 0 -359.5 -149.5t-146.5 -360.5z M504 324v663h239q111 0 166.5 -57.5t55.5 -153.5q0 -156 -148 -196l178 -256h-125l-165 245h-97v-245h-104zM608 666h111q135 0 135 112q0 51 -34 82t-93 31h-119v-225z" />
<glyph unicode="&#xaf;" horiz-adv-x="935" d="M174 1188v141h588v-141h-588z" />
<glyph unicode="&#xb0;" horiz-adv-x="806" d="M119 1188q0 115 86 197.5t198.5 82.5t197.5 -84t85 -198q0 -113 -84 -194t-199 -81q-117 0 -200.5 81t-83.5 196zM238 1188q0 -66 47.5 -114t115.5 -48q70 0 118 48t48 114q0 68 -49 116t-117 48q-66 0 -114.5 -48.5t-48.5 -115.5z" />
<glyph unicode="&#xb1;" horiz-adv-x="1234" d="M121 729v154h401v403h156v-403h401v-154h-401v-401h-156v401h-401zM154 -6v153h958v-153h-958z" />
<glyph unicode="&#xb2;" horiz-adv-x="698" />
<glyph unicode="&#xb3;" horiz-adv-x="708" />
<glyph unicode="&#xb4;" horiz-adv-x="1034" d="M338 1108l240 289l188 2l-254 -291h-174z" />
<glyph unicode="&#xb5;" horiz-adv-x="1175" d="M152 -406v1403h165v-528q0 -330 258 -330q123 0 204 98.5t81 264.5v495h166v-997h-152l-10 164h-4q-121 -176 -317 -176q-156 0 -234 106l-2 -2q10 -119 10 -217v-281h-165z" />
<glyph unicode="&#xb6;" horiz-adv-x="970" d="M96 1024q0 145 95.5 228t259.5 83h327v-1642h-110v1528h-125v-1221h-113v717q-152 8 -243 88t-91 219z" />
<glyph unicode="&#xb7;" horiz-adv-x="487" d="M127 494q0 49 34 82.5t85 33.5q47 0 81.5 -33.5t34.5 -82.5q0 -47 -34.5 -81t-81.5 -34q-51 0 -85 33.5t-34 81.5z" />
<glyph unicode="&#xb8;" horiz-adv-x="790" d="M231 -283q47 -14 99 -14q49 0 81.5 19.5t32.5 56.5t-44 61.5t-126 24.5v61l41 86h105l-35 -75l2 -5q82 -4 130 -47t48 -114q0 -70 -55 -113t-164 -43q-53 0 -115 12v90z" />
<glyph unicode="&#xb9;" horiz-adv-x="540" />
<glyph unicode="&#xba;" horiz-adv-x="774" d="M59 1108q0 131 89.5 219t228.5 88q137 0 227 -86t90 -221q0 -137 -90 -223t-227 -86q-139 0 -228.5 88t-89.5 221zM190 1108q0 -82 52.5 -138.5t134.5 -56.5q80 0 133 54.5t53 140.5q0 84 -53 138t-133 54q-82 0 -134.5 -55t-52.5 -137z" />
<glyph unicode="&#xbb;" horiz-adv-x="948" d="M80 956h164l258 -454l-254 -449h-166l254 449zM440 956h166l256 -454l-254 -449h-166l254 449z" />
<glyph unicode="&#xbc;" horiz-adv-x="1593" d="M39 1276l262 180h113v-844h-144v664l-161 -111zM391 23l635 1456l135 -60l-635 -1454zM893 139v92l416 613h110v-580h125v-125h-125v-139h-141v139h-385zM1055 256h233v348z" />
<glyph unicode="&#xbd;" horiz-adv-x="1658" d="M39 1276l262 180h113v-844h-144v664l-161 -111zM391 23l635 1456l135 -60l-635 -1454zM1014 694q41 70 117.5 115t171.5 45q115 0 197.5 -69.5t82.5 -184.5q0 -78 -32.5 -140.5t-120.5 -142.5l-201 -182v-4h364v-131h-577v98l293 281q129 119 129 205q0 59 -40 98 t-104 39q-117 0 -174 -105z" />
<glyph unicode="&#xbe;" horiz-adv-x="1724" d="M41 782l129 52q45 -104 176 -105q74 0 116 35t42 98q0 55 -46 91t-126 36h-70v111h84q66 0 106 32.5t40 81.5q0 57 -40 90t-110 33q-104 0 -149 -82l-119 66q33 66 104.5 105.5t165.5 39.5q123 0 203 -59t80 -166q0 -131 -115 -190v-4q139 -57 139 -207q0 -106 -81 -173 t-214 -67q-115 0 -198.5 50t-116.5 132zM520 23l635 1456l135 -60l-635 -1454zM1024 139v92l416 613h110v-580h125v-125h-125v-139h-141v139h-385zM1186 256h233v348z" />
<glyph unicode="&#xbf;" horiz-adv-x="878" d="M84 -143q0 111 48 195.5t134 172.5q12 12 50 49t52.5 52.5t38 44t31.5 51t11 47.5l4 100h147v-108q0 -59 -34 -122t-57.5 -88.5t-92.5 -98.5q-72 -74 -110 -140.5t-38 -146.5q0 -104 65.5 -163.5t166.5 -59.5q72 0 141.5 36.5t112.5 102.5l125 -117q-68 -90 -170.5 -140 t-221.5 -50q-170 0 -286.5 104.5t-116.5 278.5zM403 893q0 47 35 81t82 34q51 0 85 -34t34 -81q0 -49 -34 -83t-85 -34q-47 0 -82 34t-35 83z" />
<glyph unicode="&#xc0;" horiz-adv-x="1396" d="M57 0l551 1454h178l555 -1454h-188l-129 354h-649l-129 -354h-189zM350 1911l191 -2l239 -289h-176zM432 510h535l-267 727h-4z" />
<glyph unicode="&#xc1;" horiz-adv-x="1396" d="M57 0l551 1454h178l555 -1454h-188l-129 354h-649l-129 -354h-189zM432 510h535l-267 727h-4zM631 1620l239 289l189 2l-254 -291h-174z" />
<glyph unicode="&#xc2;" horiz-adv-x="1396" d="M57 0l551 1454h178l555 -1454h-188l-129 354h-649l-129 -354h-189zM379 1620l237 293h154l244 -293h-168l-148 182h-4l-147 -182h-168zM432 510h535l-267 727h-4z" />
<glyph unicode="&#xc3;" horiz-adv-x="1396" d="M57 0l551 1454h178l555 -1454h-188l-129 354h-649l-129 -354h-189zM332 1688q61 203 211 202q70 0 168 -59q4 -4 23.5 -17.5t27.5 -17.5t23.5 -12t27.5 -11.5t27 -3.5q82 0 118 113l107 -35q-27 -102 -82 -158.5t-123 -56.5q-72 0 -180 74q-78 47 -119 47 q-80 0 -123 -113zM432 510h535l-267 727h-4z" />
<glyph unicode="&#xc4;" horiz-adv-x="1396" d="M57 0l551 1454h178l555 -1454h-188l-129 354h-649l-129 -354h-189zM393 1780q0 47 35 81.5t84 34.5t84 -34.5t35 -81.5q0 -49 -35 -83t-84 -34q-51 0 -85 34t-34 83zM432 510h535l-267 727h-4zM766 1780q0 47 34 80.5t83 33.5t82.5 -33.5t33.5 -80.5t-33.5 -81t-82.5 -34 t-83 34t-34 81z" />
<glyph unicode="&#xc5;" horiz-adv-x="1396" d="M57 0l551 1454h178l555 -1454h-188l-129 354h-649l-129 -354h-189zM432 510h535l-267 727h-4zM500 1775.5q0 79.5 56 137t140 57.5t142.5 -56t58.5 -138q0 -80 -58.5 -137.5t-142.5 -57.5q-80 0 -138 57.5t-58 137zM610 1778q0 -37 26 -61.5t62 -24.5q35 0 61.5 25.5 t26.5 60t-26.5 61.5t-61.5 27q-37 0 -62.5 -27t-25.5 -61z" />
<glyph unicode="&#xc6;" horiz-adv-x="1929" d="M16 0l783 1454h985v-164h-719v-485h598v-164h-598v-477h760v-164h-934v352h-496l-188 -352h-191zM481 510h410v756h-4z" />
<glyph unicode="&#xc7;" horiz-adv-x="1490" d="M121 721q0 324 193.5 535.5t531.5 211.5q344 0 567 -278l-133 -111q-174 219 -434 219q-246 0 -392.5 -160.5t-146.5 -416.5t151.5 -408.5t387.5 -152.5q260 0 434 217l133 -113q-221 -272 -561 -274l-25 -53l2 -5q82 -4 130.5 -47t48.5 -114q0 -70 -55.5 -113 t-164.5 -43q-53 0 -114 12v90q47 -14 98 -14q49 0 82 19.5t33 56.5t-44 61.5t-126 24.5v61l28 60v10q-274 31 -449 221.5t-175 503.5z" />
<glyph unicode="&#xc8;" horiz-adv-x="1224" d="M184 0v1454h891v-164h-710v-485h583v-164h-583v-477h753v-164h-934zM412 1913l190 -2l240 -289h-176z" />
<glyph unicode="&#xc9;" horiz-adv-x="1224" d="M184 0v1454h891v-164h-710v-485h583v-164h-583v-477h753v-164h-934zM459 1622l239 289l189 2l-254 -291h-174z" />
<glyph unicode="&#xca;" horiz-adv-x="1224" d="M184 0v1454h891v-164h-710v-485h583v-164h-583v-477h753v-164h-934zM319 1620l238 293h154l243 -293h-168l-147 182h-4l-148 -182h-168z" />
<glyph unicode="&#xcb;" horiz-adv-x="1224" d="M184 0v1454h891v-164h-710v-485h583v-164h-583v-477h753v-164h-934zM334 1780q0 47 33.5 81.5t85.5 34.5q49 0 83.5 -34.5t34.5 -81.5q0 -49 -34.5 -83t-83.5 -34q-51 0 -85 34t-34 83zM707 1780q0 47 33.5 80.5t82.5 33.5t83 -33.5t34 -80.5t-34 -81t-83 -34t-82.5 34 t-33.5 81z" />
<glyph unicode="&#xcc;" horiz-adv-x="569" d="M-66 1911l191 -2l240 -289h-177zM195 0v1454h180v-1454h-180z" />
<glyph unicode="&#xcd;" horiz-adv-x="569" d="M195 0v1454h180v-1454h-180zM217 1620l240 289l188 2l-254 -291h-174z" />
<glyph unicode="&#xce;" horiz-adv-x="569" d="M-37 1620l238 293h153l244 -293h-168l-147 182h-4l-148 -182h-168zM195 0v1454h180v-1454h-180z" />
<glyph unicode="&#xcf;" horiz-adv-x="569" d="M-23 1780q0 47 34 81.5t85 34.5q49 0 84 -34.5t35 -81.5q0 -49 -35 -83t-84 -34q-51 0 -85 34t-34 83zM195 0v1454h180v-1454h-180zM350 1780q0 47 34 80.5t83 33.5t83 -33.5t34 -80.5t-34 -81t-83 -34t-83 34t-34 81z" />
<glyph unicode="&#xd0;" horiz-adv-x="1495" d="M8 801v155h176v498h437q342 0 547.5 -201.5t205.5 -527.5t-201.5 -525.5t-545.5 -199.5h-443v801h-176zM362 162h252q260 0 419 157.5t159 405.5q0 252 -157.5 409.5t-411.5 157.5h-261v-336h252v-155h-252v-639z" />
<glyph unicode="&#xd1;" horiz-adv-x="1548" d="M184 0v1454h176l822 -1159h4v1159h178v-1454h-182l-815 1147h-5v-1147h-178zM406 1688q61 203 210 202q70 0 168 -59q4 -4 23.5 -17.5t28 -17.5t23.5 -12t27.5 -11.5t26.5 -3.5q82 0 119 113l107 -35q-27 -102 -82.5 -158.5t-122.5 -56.5q-72 0 -180 74q-78 47 -119 47 q-80 0 -123 -113z" />
<glyph unicode="&#xd2;" horiz-adv-x="1697" d="M121 727.5q0 319.5 203.5 530t527.5 210.5q311 0 518 -205.5t207 -535.5q0 -328 -207 -533.5t-518 -205.5q-324 0 -527.5 210t-203.5 529.5zM305 727q0 -242 153.5 -405.5t393.5 -163.5q229 0 384 160.5t155 408.5q0 250 -155 410.5t-384 160.5q-240 0 -393.5 -164.5 t-153.5 -406.5zM518 1911l191 -2l239 -289h-176z" />
<glyph unicode="&#xd3;" horiz-adv-x="1697" d="M121 727.5q0 319.5 203.5 530t527.5 210.5q311 0 518 -205.5t207 -535.5q0 -328 -207 -533.5t-518 -205.5q-324 0 -527.5 210t-203.5 529.5zM305 727q0 -242 153.5 -405.5t393.5 -163.5q229 0 384 160.5t155 408.5q0 250 -155 410.5t-384 160.5q-240 0 -393.5 -164.5 t-153.5 -406.5zM778 1620l240 289l188 2l-254 -291h-174z" />
<glyph unicode="&#xd4;" horiz-adv-x="1697" d="M121 727.5q0 319.5 203.5 530t527.5 210.5q311 0 518 -205.5t207 -535.5q0 -328 -207 -533.5t-518 -205.5q-324 0 -527.5 210t-203.5 529.5zM305 727q0 -242 153.5 -405.5t393.5 -163.5q229 0 384 160.5t155 408.5q0 250 -155 410.5t-384 160.5q-240 0 -393.5 -164.5 t-153.5 -406.5zM532 1620l238 293h154l243 -293h-168l-147 182h-4l-148 -182h-168z" />
<glyph unicode="&#xd5;" horiz-adv-x="1697" d="M121 727.5q0 319.5 203.5 530t527.5 210.5q311 0 518 -205.5t207 -535.5q0 -328 -207 -533.5t-518 -205.5q-324 0 -527.5 210t-203.5 529.5zM305 727q0 -242 153.5 -405.5t393.5 -163.5q229 0 384 160.5t155 408.5q0 250 -155 410.5t-384 160.5q-240 0 -393.5 -164.5 t-153.5 -406.5zM485 1688q61 203 211 202q70 0 168 -59q4 -4 23.5 -17.5t28 -17.5t23.5 -12t27.5 -11.5t26.5 -3.5q82 0 119 113l107 -35q-27 -102 -82 -158.5t-123 -56.5q-72 0 -180 74q-78 47 -119 47q-80 0 -123 -113z" />
<glyph unicode="&#xd6;" horiz-adv-x="1697" d="M121 727.5q0 319.5 203.5 530t527.5 210.5q311 0 518 -205.5t207 -535.5q0 -328 -207 -533.5t-518 -205.5q-324 0 -527.5 210t-203.5 529.5zM305 727q0 -242 153.5 -405.5t393.5 -163.5q229 0 384 160.5t155 408.5q0 250 -155 410.5t-384 160.5q-240 0 -393.5 -164.5 t-153.5 -406.5zM547 1780q0 47 33.5 81.5t85.5 34.5q49 0 83.5 -34.5t34.5 -81.5q0 -49 -34.5 -83t-83.5 -34q-51 0 -85 34t-34 83zM920 1780q0 47 33.5 80.5t82.5 33.5t83 -33.5t34 -80.5t-34 -81t-83 -34t-82.5 34t-33.5 81z" />
<glyph unicode="&#xd7;" horiz-adv-x="1048" d="M113 262l305 305l-305 303l106 109l303 -305l305 305l109 -107l-305 -307l305 -305l-109 -102l-303 301l-305 -303z" />
<glyph unicode="&#xd8;" horiz-adv-x="1697" d="M121 727q0 319 203.5 530t527.5 211q266 0 461 -153l168 180l104 -96l-172 -185q164 -203 164 -487q0 -328 -207 -533.5t-518 -205.5q-252 0 -442 137l-166 -178l-109 98l166 178q-180 207 -180 504zM305 727q0 -213 121 -369l764 824q-145 117 -338 116 q-240 0 -393.5 -164.5t-153.5 -406.5zM530 258q139 -100 322 -100q229 0 384 160.5t155 408.5q0 199 -105 348z" />
<glyph unicode="&#xd9;" horiz-adv-x="1456" d="M164 592v862h178v-850q0 -203 104.5 -324.5t278.5 -121.5t280.5 119.5t106.5 326.5v850h178v-862q0 -281 -152.5 -442.5t-412.5 -161.5q-254 0 -407.5 160.5t-153.5 443.5zM432 1911l191 -2l239 -289h-176z" />
<glyph unicode="&#xda;" horiz-adv-x="1456" d="M164 592v862h178v-850q0 -203 104.5 -324.5t278.5 -121.5t280.5 119.5t106.5 326.5v850h178v-862q0 -281 -152.5 -442.5t-412.5 -161.5q-254 0 -407.5 160.5t-153.5 443.5zM600 1620l240 289l188 2l-254 -291h-174z" />
<glyph unicode="&#xdb;" horiz-adv-x="1456" d="M164 592v862h178v-850q0 -203 104.5 -324.5t278.5 -121.5t280.5 119.5t106.5 326.5v850h178v-862q0 -281 -152.5 -442.5t-412.5 -161.5q-254 0 -407.5 160.5t-153.5 443.5zM408 1620l237 293h154l243 -293h-168l-147 182h-4l-148 -182h-167z" />
<glyph unicode="&#xdc;" horiz-adv-x="1456" d="M164 592v862h178v-850q0 -203 104.5 -324.5t278.5 -121.5t280.5 119.5t106.5 326.5v850h178v-862q0 -281 -152.5 -442.5t-412.5 -161.5q-254 0 -407.5 160.5t-153.5 443.5zM422 1780q0 47 35 81.5t84 34.5t83.5 -34.5t34.5 -81.5q0 -49 -34.5 -83t-83.5 -34q-51 0 -85 34 t-34 83zM795 1780q0 47 33.5 80.5t83 33.5t83 -33.5t33.5 -80.5t-33.5 -81t-83 -34t-83 34t-33.5 81z" />
<glyph unicode="&#xdd;" horiz-adv-x="1236" d="M35 1454h205l376 -627h5l374 627h207l-495 -805v-649h-179v649zM522 1620l240 289l188 2l-254 -291h-174z" />
<glyph unicode="&#xde;" horiz-adv-x="1304" d="M184 0v1454h178v-287h371q244 0 361.5 -122.5t117.5 -327.5q0 -221 -137 -334t-373 -113h-340v-270h-178zM362 434h326q172 0 256 78t84 209q0 137 -83 210t-230 73h-353v-570z" />
<glyph unicode="&#xdf;" horiz-adv-x="1280" d="M160 0v1008q0 258 127 386t362 128q215 0 336 -100.5t121 -260.5q0 -82 -42 -160.5t-140 -123.5q127 -55 200.5 -171t73.5 -255q0 -209 -128 -336t-331 -127h-221v149h184q141 0 234.5 88t93.5 230q0 135 -95 232t-255 97h-113v144h105q82 0 140 24.5t83 62.5t35 69.5 t10 64.5q0 96 -73.5 157.5t-211.5 61.5q-330 0 -329 -356v-1012h-166z" />
<glyph unicode="&#xe0;" d="M98 492q0 221 138.5 369.5t349.5 148.5q213 0 344 -162h2v149h166v-997h-160v158h-2q-127 -170 -348 -170q-211 0 -350.5 139t-139.5 365zM266 492q0 -154 93 -253.5t243 -99.5q139 0 237.5 99.5t98.5 253t-95 259t-238.5 105.5t-241 -101.5t-97.5 -262.5zM330 1432 l190 -2l240 -289h-176z" />
<glyph unicode="&#xe1;" d="M98 492q0 221 138.5 369.5t349.5 148.5q213 0 344 -162h2v149h166v-997h-160v158h-2q-127 -170 -348 -170q-211 0 -350.5 139t-139.5 365zM266 492q0 -154 93 -253.5t243 -99.5q139 0 237.5 99.5t98.5 253t-95 259t-238.5 105.5t-241 -101.5t-97.5 -262.5zM522 1141 l240 289l188 2l-254 -291h-174z" />
<glyph unicode="&#xe2;" d="M98 492q0 221 138.5 369.5t349.5 148.5q213 0 344 -162h2v149h166v-997h-160v158h-2q-127 -170 -348 -170q-211 0 -350.5 139t-139.5 365zM266 492q0 -154 93 -253.5t243 -99.5q139 0 237.5 99.5t98.5 253t-95 259t-238.5 105.5t-241 -101.5t-97.5 -262.5zM299 1139 l238 293h153l244 -293h-168l-148 182h-4l-147 -182h-168z" />
<glyph unicode="&#xe3;" d="M98 492q0 221 138.5 369.5t349.5 148.5q213 0 344 -162h2v149h166v-997h-160v158h-2q-127 -170 -348 -170q-211 0 -350.5 139t-139.5 365zM252 1206q61 203 211 203q70 0 168 -59q4 -4 23.5 -17.5t27.5 -17.5t23.5 -12.5t27.5 -11.5t27 -3q82 0 119 113l106 -35 q-27 -102 -82 -158.5t-123 -56.5q-72 0 -180 74q-78 47 -119 47q-80 0 -123 -113zM266 492q0 -154 93 -253.5t243 -99.5q139 0 237.5 99.5t98.5 253t-95 259t-238.5 105.5t-241 -101.5t-97.5 -262.5z" />
<glyph unicode="&#xe4;" d="M98 492q0 221 138.5 369.5t349.5 148.5q213 0 344 -162h2v149h166v-997h-160v158h-2q-127 -170 -348 -170q-211 0 -350.5 139t-139.5 365zM266 492q0 -154 93 -253.5t243 -99.5q139 0 237.5 99.5t98.5 253t-95 259t-238.5 105.5t-241 -101.5t-97.5 -262.5zM313 1298.5 q0 49.5 34 83t85 33.5q49 0 84 -34.5t35 -82.5q0 -49 -35 -82.5t-84 -33.5q-51 0 -85 33.5t-34 83zM686 1298.5q0 47.5 34 81t83 33.5t83 -33.5t34 -81t-34 -81t-83 -33.5t-83 33.5t-34 81z" />
<glyph unicode="&#xe5;" d="M98 492q0 221 138.5 369.5t349.5 148.5q213 0 344 -162h2v149h166v-997h-160v158h-2q-127 -170 -348 -170q-211 0 -350.5 139t-139.5 365zM266 492q0 -154 93 -253.5t243 -99.5q139 0 237.5 99.5t98.5 253t-95 259t-238.5 105.5t-241 -101.5t-97.5 -262.5zM420 1294 q0 80 56 137.5t140 57.5t142.5 -56.5t58.5 -138.5q0 -80 -58.5 -137t-142.5 -57q-80 0 -138 57t-58 137zM530 1296q0 -37 26 -61.5t62 -24.5q35 0 62 26t27 60.5t-27 61t-62 26.5q-37 0 -62.5 -26.5t-25.5 -61.5z" />
<glyph unicode="&#xe6;" horiz-adv-x="1605" d="M66 287q0 139 95 220t279 81l242 2v22q0 135 -43 189.5t-139 54.5q-154 0 -291 -74l-66 133q160 94 367 95q223 0 287 -185h2q121 184 344 185q180 0 295.5 -140.5t115.5 -355.5q0 -18 -6 -68h-706q16 -137 98 -222t205 -85q141 0 250 133l116 -98q-145 -186 -374 -186 q-113 0 -204 54t-147 148h-4q-45 -88 -142 -145t-228 -57q-170 0 -258 84t-88 215zM231 293q0 -63 50.5 -109.5t142.5 -46.5q104 0 184 65.5t80 151.5v11l-2 84h-231q-102 -2 -163 -41t-61 -115zM848 588h541q-20 121 -90.5 194.5t-168.5 73.5q-109 0 -185.5 -72.5 t-96.5 -195.5z" />
<glyph unicode="&#xe7;" horiz-adv-x="1069" d="M96 498q0 225 140.5 368.5t359.5 143.5q115 0 222.5 -46t178.5 -133l-114 -100q-100 125 -279 125q-150 0 -245 -100.5t-95 -257.5q0 -160 94.5 -259.5t245.5 -99.5q174 0 283 119l114 -102q-61 -70 -159 -115t-213 -51l-25 -53l2 -5q82 -4 130 -47t48 -114 q0 -70 -55 -113t-164 -43q-53 0 -114 12v90q47 -14 98 -14q49 0 82 19.5t33 56.5t-44.5 61.5t-125.5 24.5v61l26 56v10q-188 23 -306 161t-118 345z" />
<glyph unicode="&#xe8;" horiz-adv-x="1130" d="M96 498q0 223 136.5 367.5t340.5 144.5q207 0 335 -139.5t128 -356.5q0 -16 -2 -43l-2 -25h-768q16 -139 107.5 -223t226.5 -84q174 0 281 135l116 -100q-145 -186 -403 -186q-215 0 -355.5 142t-140.5 368zM270 584h602q-20 125 -96 198.5t-194.5 73.5t-203.5 -72.5 t-108 -199.5zM301 1432l191 -2l239 -289h-176z" />
<glyph unicode="&#xe9;" horiz-adv-x="1130" d="M96 498q0 223 136.5 367.5t340.5 144.5q207 0 335 -139.5t128 -356.5q0 -16 -2 -43l-2 -25h-768q16 -139 107.5 -223t226.5 -84q174 0 281 135l116 -100q-145 -186 -403 -186q-215 0 -355.5 142t-140.5 368zM270 584h602q-20 125 -96 198.5t-194.5 73.5t-203.5 -72.5 t-108 -199.5zM485 1141l240 289l188 2l-254 -291h-174z" />
<glyph unicode="&#xea;" horiz-adv-x="1130" d="M96 498q0 223 136.5 367.5t340.5 144.5q207 0 335 -139.5t128 -356.5q0 -16 -2 -43l-2 -25h-768q16 -139 107.5 -223t226.5 -84q174 0 281 135l116 -100q-145 -186 -403 -186q-215 0 -355.5 142t-140.5 368zM268 1139l238 293h153l244 -293h-168l-147 182h-4l-148 -182 h-168zM270 584h602q-20 125 -96 198.5t-194.5 73.5t-203.5 -72.5t-108 -199.5z" />
<glyph unicode="&#xeb;" horiz-adv-x="1130" d="M96 498q0 223 136.5 367.5t340.5 144.5q207 0 335 -139.5t128 -356.5q0 -16 -2 -43l-2 -25h-768q16 -139 107.5 -223t226.5 -84q174 0 281 135l116 -100q-145 -186 -403 -186q-215 0 -355.5 142t-140.5 368zM270 584h602q-20 125 -96 198.5t-194.5 73.5t-203.5 -72.5 t-108 -199.5zM283 1298.5q0 49.5 34.5 83t84 33.5t84 -34.5t34.5 -82.5q0 -49 -35 -82.5t-84 -33.5q-51 0 -84.5 33.5t-33.5 83zM655 1298.5q0 47.5 34 81t83 33.5t83 -33.5t34 -81t-34 -81t-83 -33.5t-83 33.5t-34 81z" />
<glyph unicode="&#xec;" horiz-adv-x="512" d="M-18 1432l186 -2l170 -289h-172zM172 0v997h166v-997h-166z" />
<glyph unicode="&#xed;" horiz-adv-x="512" d="M172 0v997h166v-997h-166zM180 1141l240 289l188 2l-254 -291h-174z" />
<glyph unicode="&#xee;" horiz-adv-x="512" d="M-63 1139l237 293h154l243 -293h-168l-147 182h-4l-148 -182h-167zM172 0v997h166v-997h-166z" />
<glyph unicode="&#xef;" horiz-adv-x="512" d="M-29 1298q0 47 34 82t83 35q51 0 85 -33.5t34 -83t-34 -83t-85 -33.5q-49 0 -83 33.5t-34 82.5zM172 0v997h166v-997h-166zM303 1298.5q0 47.5 35 81t82 33.5q49 0 83 -33.5t34 -81t-34 -81t-83 -33.5q-47 0 -82 33.5t-35 81z" />
<glyph unicode="&#xf0;" horiz-adv-x="1216" d="M98 481q0 223 138.5 363.5t351.5 140.5q160 0 280 -88h4q-104 211 -303 346l-149 -115l-76 86l119 95q-100 49 -180 75l79 132q125 -45 230 -105l143 113l76 -92l-117 -91q199 -147 311.5 -360t112.5 -469v-4q0 -225 -143.5 -372.5t-370.5 -147.5q-215 0 -360.5 139 t-145.5 354zM266 492q0 -154 97.5 -253.5t242.5 -99.5q150 0 246 101.5t96 251.5q0 147 -98 244.5t-245.5 97.5t-243 -99.5t-95.5 -242.5z" />
<glyph unicode="&#xf1;" horiz-adv-x="1187" d="M158 0v997h166v-174h2q131 187 362 187q166 0 262.5 -105.5t96.5 -312.5v-592h-166v545q0 311 -244 311q-143 0 -228 -95t-85 -263v-498h-166zM233 1206q61 203 211 203q70 0 168 -59q4 -4 23.5 -17.5t28 -17.5t23.5 -12.5t27.5 -11.5t26.5 -3q82 0 119 113l107 -35 q-27 -102 -82.5 -158.5t-122.5 -56.5q-72 0 -180 74q-78 47 -119 47q-80 0 -123 -113z" />
<glyph unicode="&#xf2;" horiz-adv-x="1222" d="M96 498q0 219 143.5 365.5t372.5 146.5q221 0 366.5 -143.5t145.5 -369t-145.5 -367.5t-366.5 -142q-229 0 -372.5 145.5t-143.5 364.5zM264 497.5q0 -151.5 97 -255t251 -103.5q145 0 244.5 101.5t99.5 257.5q0 158 -98 258t-246 100q-154 0 -251 -103.5t-97 -255z M305 1432l191 -2l239 -289h-176z" />
<glyph unicode="&#xf3;" horiz-adv-x="1222" d="M96 498q0 219 143.5 365.5t372.5 146.5q221 0 366.5 -143.5t145.5 -369t-145.5 -367.5t-366.5 -142q-229 0 -372.5 145.5t-143.5 364.5zM264 497.5q0 -151.5 97 -255t251 -103.5q145 0 244.5 101.5t99.5 257.5q0 158 -98 258t-246 100q-154 0 -251 -103.5t-97 -255z M520 1141l240 289l188 2l-254 -291h-174z" />
<glyph unicode="&#xf4;" horiz-adv-x="1222" d="M96 498q0 219 143.5 365.5t372.5 146.5q221 0 366.5 -143.5t145.5 -369t-145 -367.5t-367 -142q-229 0 -372.5 145.5t-143.5 364.5zM264 497.5q0 -151.5 97 -255t251 -103.5q145 0 244.5 101.5t99.5 257.5q0 158 -98 258t-246 100q-154 0 -251 -103.5t-97 -255zM293 1139 l237 293h154l244 -293h-168l-148 182h-4l-147 -182h-168z" />
<glyph unicode="&#xf5;" horiz-adv-x="1222" d="M96 498q0 219 143.5 365.5t372.5 146.5q221 0 366.5 -143.5t145.5 -369t-145.5 -367.5t-366.5 -142q-229 0 -372.5 145.5t-143.5 364.5zM246 1206q61 203 211 203q70 0 168 -59q4 -4 23.5 -17.5t27.5 -17.5t23.5 -12.5t27.5 -11.5t27 -3q82 0 118 113l107 -35 q-27 -102 -82 -158.5t-123 -56.5q-72 0 -180 74q-78 47 -119 47q-80 0 -123 -113zM264 497.5q0 -151.5 97 -255t251 -103.5q145 0 244.5 101.5t99.5 257.5q0 158 -98 258t-246 100q-154 0 -251 -103.5t-97 -255z" />
<glyph unicode="&#xf6;" horiz-adv-x="1222" d="M96 498q0 219 143.5 365.5t372.5 146.5q221 0 366.5 -143.5t145.5 -369t-145.5 -367.5t-366.5 -142q-229 0 -372.5 145.5t-143.5 364.5zM264 497.5q0 -151.5 97 -255t251 -103.5q145 0 244.5 101.5t99.5 257.5q0 158 -98 258t-246 100q-154 0 -251 -103.5t-97 -255z M307 1298.5q0 49.5 35 83t84 33.5t84 -34.5t35 -82.5q0 -49 -35 -82.5t-84 -33.5q-51 0 -85 33.5t-34 83zM680 1298.5q0 47.5 34 81t83 33.5t82.5 -33.5t33.5 -81t-33.5 -81t-82.5 -33.5t-83 33.5t-34 81z" />
<glyph unicode="&#xf7;" horiz-adv-x="1189" d="M129 489v154h958v-154h-958zM475 155.5q0 49.5 35 83t84 33.5t84 -34.5t35 -81.5q0 -49 -35 -83t-84 -34q-51 0 -85 33.5t-34 83zM475 962.5q0 49.5 35 83t84 33.5t84 -34.5t35 -81.5q0 -49 -35 -83t-84 -34q-51 0 -85 33.5t-34 83z" />
<glyph unicode="&#xf8;" horiz-adv-x="1222" d="M96 498q0 219 143.5 365.5t372.5 146.5q182 0 318 -101l123 129l92 -86l-125 -133q104 -137 104 -321q0 -225 -145 -367.5t-367 -142.5q-164 0 -295 82l-108 -117l-96 88l106 113q-123 141 -123 344zM264 498q0 -129 70 -222l485 515q-92 66 -207 65q-154 0 -251 -103 t-97 -255zM430 188q82 -49 182 -49q145 0 244.5 101.5t99.5 257.5q0 115 -53 198z" />
<glyph unicode="&#xf9;" horiz-adv-x="1155" d="M137 403v594h166v-546q0 -166 60.5 -239t183.5 -73t209 101.5t86 273.5v483h166v-997h-166v166h-2q-125 -178 -328 -178q-178 0 -276.5 103.5t-98.5 311.5zM291 1432l190 -2l240 -289h-176z" />
<glyph unicode="&#xfa;" horiz-adv-x="1155" d="M137 403v594h166v-546q0 -166 60.5 -239t183.5 -73t209 101.5t86 273.5v483h166v-997h-166v166h-2q-125 -178 -328 -178q-178 0 -276.5 103.5t-98.5 311.5zM483 1141l240 289l188 2l-254 -291h-174z" />
<glyph unicode="&#xfb;" horiz-adv-x="1155" d="M137 403v594h166v-546q0 -166 60.5 -239t183.5 -73t209 101.5t86 273.5v483h166v-997h-166v166h-2q-125 -178 -328 -178q-178 0 -276.5 103.5t-98.5 311.5zM256 1139l238 293h153l244 -293h-168l-148 182h-4l-147 -182h-168z" />
<glyph unicode="&#xfc;" horiz-adv-x="1155" d="M137 403v594h166v-546q0 -166 60.5 -239t183.5 -73t209 101.5t86 273.5v483h166v-997h-166v166h-2q-125 -178 -328 -178q-178 0 -276.5 103.5t-98.5 311.5zM270 1298.5q0 49.5 35 83t84 33.5t84 -34.5t35 -82.5q0 -49 -35 -82.5t-84 -33.5q-51 0 -85 33.5t-34 83z M643 1298.5q0 47.5 34 81t83 33.5t83 -33.5t34 -81t-34 -81t-83 -33.5t-83 33.5t-34 81z" />
<glyph unicode="&#xfd;" horiz-adv-x="1081" d="M47 997h178l324 -759h4l301 759h176l-563 -1403h-176l178 447zM422 1141l240 289l188 2l-254 -291h-174z" />
<glyph unicode="&#xfe;" horiz-adv-x="1251" d="M160 -406v1913h166v-657h2q129 160 340 160t349 -148.5t138 -369.5q0 -225 -139 -364.5t-348 -139.5q-213 0 -340 159h-4v-553h-164zM319 491.5q0 -153.5 98.5 -253t233.5 -99.5q150 0 243 99.5t93 253.5q0 164 -96 264t-242 100q-141 0 -235.5 -105.5t-94.5 -259z" />
<glyph unicode="&#xff;" horiz-adv-x="1081" d="M47 997h178l324 -759h4l301 759h176l-563 -1403h-176l178 447zM238 1298.5q0 49.5 34.5 83t84 33.5t84 -34.5t34.5 -82.5q0 -49 -35 -82.5t-84 -33.5q-51 0 -84.5 33.5t-33.5 83zM610 1298.5q0 47.5 34 81t83 33.5t83 -33.5t34 -81t-34 -81t-83 -33.5t-83 33.5t-34 81z " />
<glyph unicode="&#x152;" horiz-adv-x="1964" d="M121 729q0 311 205.5 519t529.5 206h961v-164h-709v-487h588v-164h-588v-475h750v-164h-1002q-324 0 -529.5 210t-205.5 519zM305 729q0 -242 160 -402.5t391 -158.5h74v1120h-74q-233 2 -392 -156.5t-159 -402.5z" />
<glyph unicode="&#x153;" horiz-adv-x="1660" d="M72 498q0 219 125 365.5t313 146.5q215 0 336 -203h2q119 203 348 203q176 0 291 -140.5t115 -355.5q0 -35 -5 -68h-657q10 -141 78.5 -224t189.5 -83q141 0 236 133l115 -98q-57 -84 -153.5 -135t-205.5 -51q-238 0 -350 198h-4q-121 -199 -342 -198q-195 0 -313.5 144 t-118.5 366zM240 498q0 -154 72.5 -256.5t191.5 -102.5q111 0 188.5 101.5t77.5 257.5q0 158 -74.5 258t-185.5 100q-115 0 -192.5 -103.5t-77.5 -254.5zM944 586h494q-16 123 -82 196.5t-164 73.5q-102 0 -166.5 -72.5t-81.5 -197.5z" />
<glyph unicode="&#x178;" horiz-adv-x="1236" d="M35 1454h205l376 -627h5l374 627h207l-495 -805v-649h-179v649zM317 1780q0 47 34 81.5t85 34.5q49 0 84 -34.5t35 -81.5q0 -49 -35 -83t-84 -34q-51 0 -85 34t-34 83zM690 1780q0 47 34 80.5t83 33.5t83 -33.5t34 -80.5t-34 -81t-83 -34t-83 34t-34 81z" />
<glyph unicode="&#x2c6;" horiz-adv-x="1013" d="M188 1106l238 293h154l243 -293h-168l-147 182h-4l-148 -182h-168z" />
<glyph unicode="&#x2dc;" horiz-adv-x="1034" d="M152 1174q61 203 210 202q70 0 168 -59q4 -4 23.5 -17.5t28 -17.5t24 -12t27.5 -11.5t26 -3.5q82 0 119 113l107 -35q-27 -102 -82 -158.5t-123 -56.5q-72 0 -180 74q-78 47 -119 47q-80 0 -123 -113z" />
<glyph unicode="&#x2000;" horiz-adv-x="985" />
<glyph unicode="&#x2001;" horiz-adv-x="1970" />
<glyph unicode="&#x2002;" horiz-adv-x="985" />
<glyph unicode="&#x2003;" horiz-adv-x="1970" />
<glyph unicode="&#x2004;" horiz-adv-x="656" />
<glyph unicode="&#x2005;" horiz-adv-x="492" />
<glyph unicode="&#x2006;" horiz-adv-x="328" />
<glyph unicode="&#x2007;" horiz-adv-x="328" />
<glyph unicode="&#x2008;" horiz-adv-x="246" />
<glyph unicode="&#x2009;" horiz-adv-x="394" />
<glyph unicode="&#x200a;" horiz-adv-x="109" />
<glyph unicode="&#x2010;" horiz-adv-x="839" d="M117 551v162h606v-162h-606z" />
<glyph unicode="&#x2011;" horiz-adv-x="839" d="M117 551v162h606v-162h-606z" />
<glyph unicode="&#x2012;" horiz-adv-x="839" d="M117 551v162h606v-162h-606z" />
<glyph unicode="&#x2013;" horiz-adv-x="1187" d="M117 535v149h954v-149h-954z" />
<glyph unicode="&#x2014;" horiz-adv-x="2144" d="M117 535v149h1911v-149h-1911z" />
<glyph unicode="&#x2018;" horiz-adv-x="407" d="M80 961l110 493h138l-68 -493h-180z" />
<glyph unicode="&#x2019;" horiz-adv-x="407" d="M80 961l67 493h181l-111 -493h-137z" />
<glyph unicode="&#x201a;" horiz-adv-x="440" d="M66 -266l65 491h182l-125 -491h-122z" />
<glyph unicode="&#x201c;" horiz-adv-x="698" d="M80 961l108 493h140l-66 -493h-182zM371 961l110 493h137l-67 -493h-180z" />
<glyph unicode="&#x201d;" horiz-adv-x="698" d="M80 961l67 493h181l-111 -493h-137zM371 961l65 493h182l-108 -493h-139z" />
<glyph unicode="&#x201e;" horiz-adv-x="731" d="M66 -156l67 494h180l-110 -494h-137zM356 -156l66 494h182l-108 -494h-140z" />
<glyph unicode="&#x2022;" horiz-adv-x="843" d="M211 647q0 88 61.5 148.5t149.5 60.5t149.5 -60.5t61.5 -148.5t-61.5 -148.5t-149.5 -60.5t-149.5 60.5t-61.5 148.5z" />
<glyph unicode="&#x2026;" horiz-adv-x="2048" d="M223 102q0 49 34 83t85 34q47 0 82 -33.5t35 -83.5q0 -47 -35 -80.5t-82 -33.5q-51 0 -85 33.5t-34 80.5zM905 102q0 49 34 83t85 34q47 0 82 -33.5t35 -83.5q0 -47 -35 -80.5t-82 -33.5q-51 0 -85 33.5t-34 80.5zM1589 102q0 49 34 83t85 34q47 0 82 -33.5t35 -83.5 q0 -47 -35 -80.5t-82 -33.5q-51 0 -85 33.5t-34 80.5z" />
<glyph unicode="&#x202f;" horiz-adv-x="394" />
<glyph unicode="&#x2039;" horiz-adv-x="595" d="M102 502l258 454h164l-256 -454l254 -449h-166z" />
<glyph unicode="&#x203a;" horiz-adv-x="587" d="M80 956h164l258 -454l-254 -449h-166l254 449z" />
<glyph unicode="&#x205f;" horiz-adv-x="492" />
<glyph unicode="&#x20ac;" horiz-adv-x="1226" d="M27 500v110h116q-2 23 -2 72q0 27 4 76h-118v112h135q51 227 214 369.5t398 142.5q213 0 383 -118l-100 -129q-125 88 -283 88q-152 0 -266.5 -96.5t-161.5 -256.5h563v-112h-583q-4 -49 -4 -76t4 -72h583v-110h-563q47 -164 166 -257t262 -93q166 0 295 92l98 -131 q-176 -123 -393 -123q-215 0 -389 135t-225 377h-133z" />
<glyph unicode="&#x2122;" horiz-adv-x="1398" d="M47 1354v100h490v-100h-191v-561h-110v561h-189zM637 793v661h115l217 -397l217 397h114v-661h-110v454l-184 -323h-74l-187 323v-454h-108z" />
<glyph unicode="&#x25fc;" horiz-adv-x="993" d="M0 0v993h993v-993h-993z" />
</font>
</defs>
</svg>
